<svg xmlns="http://www.w3.org/2000/svg" width="1120" height="560" viewBox="0 0 1120 560">
<rect width="100%" height="100%" fill="#ffffff"/>
<text x="40" y="34" font-family="Arial, Helvetica, sans-serif" font-size="22" font-weight="700" fill="#222">Capability Decomposition</text>
<text x="40" y="56" font-family="Arial, Helvetica, sans-serif" font-size="13" fill="#555">Descriptive rates; fixed cohort order, not a leaderboard.</text>
<line x1="170.0" y1="80" x2="170.0" y2="450" stroke="#e6e6e6"/>
<text x="170.0" y="472" text-anchor="middle" font-family="Arial" font-size="12" fill="#555">0.00</text>
<line x1="397.5" y1="80" x2="397.5" y2="450" stroke="#e6e6e6"/>
<text x="397.5" y="472" text-anchor="middle" font-family="Arial" font-size="12" fill="#555">0.25</text>
<line x1="625.0" y1="80" x2="625.0" y2="450" stroke="#e6e6e6"/>
<text x="625.0" y="472" text-anchor="middle" font-family="Arial" font-size="12" fill="#555">0.50</text>
<line x1="852.5" y1="80" x2="852.5" y2="450" stroke="#e6e6e6"/>
<text x="852.5" y="472" text-anchor="middle" font-family="Arial" font-size="12" fill="#555">0.75</text>
<line x1="1080.0" y1="80" x2="1080.0" y2="450" stroke="#e6e6e6"/>
<text x="1080.0" y="472" text-anchor="middle" font-family="Arial" font-size="12" fill="#555">1.00</text>
<text x="158" y="133.5" text-anchor="end" font-family="Arial" font-size="13" font-weight="700" fill="#222">GPT-5.4</text>
<rect x="170" y="90.0" width="873.6" height="14.0" fill="#4C78A8"/>
<text x="1036.6" y="101.0" text-anchor="end" font-family="Arial" font-size="11" fill="#fff">0.960</text>
<rect x="170" y="111.0" width="664.3" height="14.0" fill="#59A14F"/>
<text x="841.3" y="122.0" text-anchor="start" font-family="Arial" font-size="11" fill="#222">0.730</text>
<rect x="170" y="132.0" width="873.6" height="14.0" fill="#B07AA1"/>
<text x="1036.6" y="143.0" text-anchor="end" font-family="Arial" font-size="11" fill="#fff">0.960</text>
<rect x="170" y="153.0" width="371.6" height="14.0" fill="#F28E2B"/>
<text x="548.6" y="164.0" text-anchor="start" font-family="Arial" font-size="11" fill="#222">0.408</text>
<text x="158" y="207.5" text-anchor="end" font-family="Arial" font-size="13" font-weight="700" fill="#222">Claude Opus 4.7</text>
<rect x="170" y="164.0" width="873.6" height="14.0" fill="#4C78A8"/>
<text x="1036.6" y="175.0" text-anchor="end" font-family="Arial" font-size="11" fill="#fff">0.960</text>
<rect x="170" y="185.0" width="910.0" height="14.0" fill="#59A14F"/>
<text x="1073.0" y="196.0" text-anchor="end" font-family="Arial" font-size="11" fill="#fff">1.000</text>
<rect x="170" y="206.0" width="873.6" height="14.0" fill="#B07AA1"/>
<text x="1036.6" y="217.0" text-anchor="end" font-family="Arial" font-size="11" fill="#fff">0.960</text>
<rect x="170" y="227.0" width="546.0" height="14.0" fill="#F28E2B"/>
<text x="723.0" y="238.0" text-anchor="start" font-family="Arial" font-size="11" fill="#222">0.600</text>
<text x="158" y="281.5" text-anchor="end" font-family="Arial" font-size="13" font-weight="700" fill="#222">Gemini 3.1 Pro</text>
<rect x="170" y="238.0" width="873.6" height="14.0" fill="#4C78A8"/>
<text x="1036.6" y="249.0" text-anchor="end" font-family="Arial" font-size="11" fill="#fff">0.960</text>
<rect x="170" y="259.0" width="910.0" height="14.0" fill="#59A14F"/>
<text x="1073.0" y="270.0" text-anchor="end" font-family="Arial" font-size="11" fill="#fff">1.000</text>
<rect x="170" y="280.0" width="873.6" height="14.0" fill="#B07AA1"/>
<text x="1036.6" y="291.0" text-anchor="end" font-family="Arial" font-size="11" fill="#fff">0.960</text>
<rect x="170" y="301.0" width="417.1" height="14.0" fill="#F28E2B"/>
<text x="594.1" y="312.0" text-anchor="start" font-family="Arial" font-size="11" fill="#222">0.458</text>
<text x="158" y="355.5" text-anchor="end" font-family="Arial" font-size="13" font-weight="700" fill="#222">DeepSeek V4 Pro</text>
<rect x="170" y="312.0" width="864.5" height="14.0" fill="#4C78A8"/>
<text x="1027.5" y="323.0" text-anchor="end" font-family="Arial" font-size="11" fill="#fff">0.950</text>
<rect x="170" y="333.0" width="850.9" height="14.0" fill="#59A14F"/>
<text x="1013.9" y="344.0" text-anchor="end" font-family="Arial" font-size="11" fill="#fff">0.935</text>
<rect x="170" y="354.0" width="864.5" height="14.0" fill="#B07AA1"/>
<text x="1027.5" y="365.0" text-anchor="end" font-family="Arial" font-size="11" fill="#fff">0.950</text>
<rect x="170" y="375.0" width="432.2" height="14.0" fill="#F28E2B"/>
<text x="609.2" y="386.0" text-anchor="start" font-family="Arial" font-size="11" fill="#222">0.475</text>
<text x="158" y="429.5" text-anchor="end" font-family="Arial" font-size="13" font-weight="700" fill="#222">Kimi K2.6</text>
<rect x="170" y="386.0" width="873.6" height="14.0" fill="#4C78A8"/>
<text x="1036.6" y="397.0" text-anchor="end" font-family="Arial" font-size="11" fill="#fff">0.960</text>
<rect x="170" y="407.0" width="864.5" height="14.0" fill="#59A14F"/>
<text x="1027.5" y="418.0" text-anchor="end" font-family="Arial" font-size="11" fill="#fff">0.950</text>
<rect x="170" y="428.0" width="873.6" height="14.0" fill="#B07AA1"/>
<text x="1036.6" y="439.0" text-anchor="end" font-family="Arial" font-size="11" fill="#fff">0.960</text>
<rect x="170" y="449.0" width="409.5" height="14.0" fill="#F28E2B"/>
<text x="586.5" y="460.0" text-anchor="start" font-family="Arial" font-size="11" fill="#222">0.450</text>
<rect x="170" y="515" width="14" height="14" fill="#4C78A8"/>
<text x="190" y="527" font-family="Arial" font-size="12" fill="#333">Belief correctness</text>
<rect x="390" y="515" width="14" height="14" fill="#59A14F"/>
<text x="410" y="527" font-family="Arial" font-size="12" fill="#333">Evidence cleanliness</text>
<rect x="610" y="515" width="14" height="14" fill="#B07AA1"/>
<text x="630" y="527" font-family="Arial" font-size="12" fill="#333">Uncertainty discipline</text>
<rect x="830" y="515" width="14" height="14" fill="#F28E2B"/>
<text x="850" y="527" font-family="Arial" font-size="12" fill="#333">Verification action</text>
</svg>
